<svg width="76" height="122" viewBox="0 0 76 122" fill="none" xmlns="http://www.w3.org/2000/svg">
<g filter="url(#filter0_d_28_8)">
<mask id="path-1-outside-1_28_8" maskUnits="userSpaceOnUse" x="12.1" y="15.77" width="62" height="89" fill="black">
<rect fill="white" x="12.1" y="15.77" width="62" height="89"/>
<path d="M12.6909 103.77V16.4973H40.8585C47.0517 16.4973 52.2222 17.6194 56.3699 19.8638C60.546 22.0797 63.6852 25.162 65.7875 29.1109C67.9182 33.0314 68.9835 37.5342 68.9835 42.6194C68.9835 47.7047 67.9182 52.1933 65.7875 56.0853C63.6852 59.9774 60.5602 63.0172 56.4125 65.2047C52.2648 67.3922 47.1227 68.4859 40.9864 68.4859H16.9949V61.199H40.7733C45.3188 61.199 49.0972 60.4461 52.1085 58.9405C55.1483 57.4348 57.4068 55.2899 58.8841 52.5058C60.3898 49.7217 61.1426 46.4263 61.1426 42.6194C61.1426 38.8126 60.3898 35.4887 58.8841 32.6478C57.3784 29.7785 55.1057 27.5626 52.0659 26.0001C49.0545 24.4376 45.2477 23.6564 40.6455 23.6564H20.6597V103.77H12.6909ZM51.171 64.395L72.6483 103.77H63.4438L42.1795 64.395H51.171Z"/>
</mask>
<path d="M12.6909 103.77V16.4973H40.8585C47.0517 16.4973 52.2222 17.6194 56.3699 19.8638C60.546 22.0797 63.6852 25.162 65.7875 29.1109C67.9182 33.0314 68.9835 37.5342 68.9835 42.6194C68.9835 47.7047 67.9182 52.1933 65.7875 56.0853C63.6852 59.9774 60.5602 63.0172 56.4125 65.2047C52.2648 67.3922 47.1227 68.4859 40.9864 68.4859H16.9949V61.199H40.7733C45.3188 61.199 49.0972 60.4461 52.1085 58.9405C55.1483 57.4348 57.4068 55.2899 58.8841 52.5058C60.3898 49.7217 61.1426 46.4263 61.1426 42.6194C61.1426 38.8126 60.3898 35.4887 58.8841 32.6478C57.3784 29.7785 55.1057 27.5626 52.0659 26.0001C49.0545 24.4376 45.2477 23.6564 40.6455 23.6564H20.6597V103.77H12.6909ZM51.171 64.395L72.6483 103.77H63.4438L42.1795 64.395H51.171Z" fill="#B43333"/>
<path d="M12.6909 103.77H12.1909V104.27H12.6909V103.77ZM12.6909 16.4973V15.9973H12.1909V16.4973H12.6909ZM56.3699 19.8638L56.1319 20.3035L56.1355 20.3054L56.3699 19.8638ZM65.7875 29.1109L65.3461 29.3459L65.3482 29.3497L65.7875 29.1109ZM65.7875 56.0853L65.3489 55.8452L65.3476 55.8477L65.7875 56.0853ZM56.4125 65.2047L56.1793 64.7624L56.1793 64.7624L56.4125 65.2047ZM16.9949 68.4859H16.4949V68.9859H16.9949V68.4859ZM16.9949 61.199V60.699H16.4949V61.199H16.9949ZM52.1085 58.9405L51.8866 58.4924L51.8849 58.4932L52.1085 58.9405ZM58.8841 52.5058L58.4443 52.2679L58.4424 52.2714L58.8841 52.5058ZM58.8841 32.6478L58.4413 32.8802L58.4423 32.882L58.8841 32.6478ZM52.0659 26.0001L51.8356 26.4439L51.8373 26.4448L52.0659 26.0001ZM20.6597 23.6564V23.1564H20.1597V23.6564H20.6597ZM20.6597 103.77V104.27H21.1597V103.77H20.6597ZM51.171 64.395L51.61 64.1556L51.4678 63.895H51.171V64.395ZM72.6483 103.77V104.27H73.4906L73.0872 103.531L72.6483 103.77ZM63.4438 103.77L63.0038 104.008L63.1455 104.27H63.4438V103.77ZM42.1795 64.395V63.895H41.3413L41.7396 64.6326L42.1795 64.395ZM12.6909 103.77H13.1909V16.4973H12.6909H12.1909V103.77H12.6909ZM12.6909 16.4973V16.9973H40.8585V16.4973V15.9973H12.6909V16.4973ZM40.8585 16.4973V16.9973C46.9938 16.9973 52.0766 18.1092 56.1319 20.3035L56.3699 19.8638L56.6078 19.424C52.3677 17.1297 47.1096 15.9973 40.8585 15.9973V16.4973ZM56.3699 19.8638L56.1355 20.3054C60.2289 22.4774 63.2935 25.4901 65.3461 29.3459L65.7875 29.1109L66.2289 28.8759C64.077 24.834 60.8632 21.6819 56.6042 19.4221L56.3699 19.8638ZM65.7875 29.1109L65.3482 29.3497C67.4338 33.1871 68.4835 37.6058 68.4835 42.6194H68.9835H69.4835C69.4835 37.4626 68.4026 32.8756 66.2268 28.8721L65.7875 29.1109ZM68.9835 42.6194H68.4835C68.4835 47.6331 67.4338 52.037 65.3489 55.8452L65.7875 56.0853L66.2261 56.3254C68.4026 52.3496 69.4835 47.7762 69.4835 42.6194H68.9835ZM65.7875 56.0853L65.3476 55.8477C63.2953 59.6472 60.2449 62.6182 56.1793 64.7624L56.4125 65.2047L56.6457 65.6469C60.8756 63.4161 64.0752 60.3076 66.2274 56.323L65.7875 56.0853ZM56.4125 65.2047L56.1793 64.7624C52.1222 66.9021 47.0657 67.9859 40.9864 67.9859V68.4859V68.9859C47.1798 68.9859 52.4074 67.8822 56.6457 65.6469L56.4125 65.2047ZM40.9864 68.4859V67.9859H16.9949V68.4859V68.9859H40.9864V68.4859ZM16.9949 68.4859H17.4949V61.199H16.9949H16.4949V68.4859H16.9949ZM16.9949 61.199V61.699H40.7733V61.199V60.699H16.9949V61.199ZM40.7733 61.199V61.699C45.3705 61.699 49.2314 60.938 52.3321 59.3877L52.1085 58.9405L51.8849 58.4932C48.9629 59.9542 45.267 60.699 40.7733 60.699V61.199ZM52.1085 58.9405L52.3305 59.3885C55.4565 57.8401 57.7956 55.6239 59.3258 52.7402L58.8841 52.5058L58.4424 52.2714C57.018 54.9559 54.8401 57.0294 51.8866 58.4924L52.1085 58.9405ZM58.8841 52.5058L59.3239 52.7436C60.8764 49.8731 61.6426 46.4926 61.6426 42.6194H61.1426H60.6426C60.6426 46.3599 59.9032 49.5703 58.4443 52.2679L58.8841 52.5058ZM61.1426 42.6194H61.6426C61.6426 38.746 60.8762 35.3389 59.3259 32.4137L58.8841 32.6478L58.4423 32.882C59.9033 35.6386 60.6426 38.8793 60.6426 42.6194H61.1426ZM58.8841 32.6478L59.3268 32.4155C57.7706 29.4499 55.4205 27.1622 52.2945 25.5554L52.0659 26.0001L51.8373 26.4448C54.7909 27.963 56.9862 30.1071 58.4413 32.8802L58.8841 32.6478ZM52.0659 26.0001L52.2962 25.5563C49.1929 23.9461 45.3007 23.1564 40.6455 23.1564V23.6564V24.1564C45.1948 24.1564 48.9162 24.9291 51.8356 26.4439L52.0659 26.0001ZM40.6455 23.6564V23.1564H20.6597V23.6564V24.1564H40.6455V23.6564ZM20.6597 23.6564H20.1597V103.77H20.6597H21.1597V23.6564H20.6597ZM20.6597 103.77V103.27H12.6909V103.77V104.27H20.6597V103.77ZM51.171 64.395L50.7321 64.6344L72.2094 104.009L72.6483 103.77L73.0872 103.531L51.61 64.1556L51.171 64.395ZM72.6483 103.77V103.27H63.4438V103.77V104.27H72.6483V103.77ZM63.4438 103.77L63.8837 103.532L42.6195 64.1574L42.1795 64.395L41.7396 64.6326L63.0038 104.008L63.4438 103.77ZM42.1795 64.395V64.895H51.171V64.395V63.895H42.1795V64.395Z" fill="#904141" mask="url(#path-1-outside-1_28_8)"/>
</g>
<g filter="url(#filter1_d_28_8)">
<path d="M14.1 16V100.5H50.1" stroke="#904141" stroke-width="8"/>
</g>
<defs>
<filter id="filter0_d_28_8" x="2.09091" y="13.8973" width="73.4997" height="100.473" filterUnits="userSpaceOnUse" color-interpolation-filters="sRGB">
<feFlood flood-opacity="0" result="BackgroundImageFix"/>
<feColorMatrix in="SourceAlpha" type="matrix" values="0 0 0 0 0 0 0 0 0 0 0 0 0 0 0 0 0 0 127 0" result="hardAlpha"/>
<feOffset dx="-4" dy="4"/>
<feGaussianBlur stdDeviation="3.05"/>
<feComposite in2="hardAlpha" operator="out"/>
<feColorMatrix type="matrix" values="0 0 0 0 0 0 0 0 0 0 0 0 0 0 0 0 0 0 0.25 0"/>
<feBlend mode="normal" in2="BackgroundImageFix" result="effect1_dropShadow_28_8"/>
<feBlend mode="normal" in="SourceGraphic" in2="effect1_dropShadow_28_8" result="shape"/>
</filter>
<filter id="filter1_d_28_8" x="4.76837e-07" y="13.9" width="52.2" height="100.7" filterUnits="userSpaceOnUse" color-interpolation-filters="sRGB">
<feFlood flood-opacity="0" result="BackgroundImageFix"/>
<feColorMatrix in="SourceAlpha" type="matrix" values="0 0 0 0 0 0 0 0 0 0 0 0 0 0 0 0 0 0 127 0" result="hardAlpha"/>
<feOffset dx="-4" dy="4"/>
<feGaussianBlur stdDeviation="3.05"/>
<feComposite in2="hardAlpha" operator="out"/>
<feColorMatrix type="matrix" values="0 0 0 0 0 0 0 0 0 0 0 0 0 0 0 0 0 0 0.25 0"/>
<feBlend mode="normal" in2="BackgroundImageFix" result="effect1_dropShadow_28_8"/>
<feBlend mode="normal" in="SourceGraphic" in2="effect1_dropShadow_28_8" result="shape"/>
</filter>
</defs>
</svg>
